<svg width="32" height="32" viewBox="0 0 32 32" fill="none" xmlns="http://www.w3.org/2000/svg">
<path d="M31.4879 27.9984H25.8082V25.4977C25.8082 25.2208 25.5778 24.9976 25.2919 24.9976H24.2336C24.1782 24.39 24.016 23.7949 23.76 23.2451C24.8694 22.7161 25.5351 21.7902 25.565 21.7448C25.6504 21.629 25.676 21.4802 25.6418 21.3438C25.6077 21.2074 25.5138 21.0876 25.3815 21.0215C25.3175 20.9884 23.8197 20.232 22.2622 20.604C22.0232 20.6619 21.797 20.7404 21.5879 20.8355C21.238 20.6205 20.8625 20.4469 20.4742 20.3147C21.3106 19.1615 21.2807 17.7355 21.2764 17.6694C21.2764 17.5247 21.2082 17.3925 21.0929 17.3015C20.9777 17.2106 20.8326 17.1693 20.6876 17.1899C20.6193 17.1982 18.9465 17.4379 17.9096 18.6242C17.5341 19.0582 17.2951 19.5459 17.15 20.0005H14.9652C14.9652 18.9011 14.0392 18.0001 12.8999 18.0001C12.7206 18.0001 12.5457 18.0207 12.3835 18.0662C12.3835 17.9835 12.375 17.8967 12.3664 17.8141C12.183 16.2724 10.9327 15.1729 10.8772 15.1275C10.7662 15.0324 10.6211 14.9869 10.4761 15.0035C10.331 15.02 10.1987 15.0944 10.1133 15.2101C10.0707 15.268 9.10628 16.6072 9.28977 18.153C9.30684 18.2811 9.32818 18.4092 9.35805 18.5415C9.22576 18.5126 9.09348 18.4919 8.95693 18.4754C7.36525 18.2976 5.9784 19.2359 5.91866 19.2731C5.79917 19.3558 5.72236 19.4839 5.70529 19.6244C5.68822 19.7649 5.73516 19.9055 5.83331 20.0129C5.87598 20.0625 6.85318 21.1041 8.26564 21.3976C8.26564 21.4306 8.26564 21.4637 8.26564 21.4968C8.26564 21.8936 8.38512 22.2738 8.60275 22.5962C8.13335 23.3237 7.85171 24.142 7.77064 24.9976H6.71236C6.42646 24.9976 6.19603 25.2208 6.19603 25.4977V27.9984H0.516335C0.230431 27.9984 0 28.2215 0 28.4985C0 28.7754 0.230431 28.9986 0.516335 28.9986H2.30431L4.21603 31.7761C4.30991 31.9167 4.47206 31.9993 4.64702 31.9993H27.3615C27.5365 31.9993 27.6944 31.9167 27.7925 31.7761L29.7042 28.9986H31.4922C31.7781 28.9986 32.0085 28.7754 32.0085 28.4985C32.0085 28.2215 31.7781 27.9984 31.4965 27.9984H31.4879ZM22.5182 21.5712C23.1626 21.4182 23.8197 21.5298 24.2763 21.6662C23.9349 21.9928 23.4058 22.3896 22.7614 22.5425C22.1171 22.6954 21.4599 22.5797 21.0033 22.4474C21.3447 22.125 21.8738 21.7282 22.5182 21.5712ZM18.7033 19.2648C19.1343 18.773 19.7317 18.4919 20.1883 18.3431C20.1072 18.8019 19.9237 19.4219 19.4927 19.9137C19.0617 20.4056 18.4601 20.6867 18.0077 20.8355C18.0163 20.7735 18.0291 20.7115 18.0461 20.6453C18.0547 20.6205 18.0589 20.5957 18.0632 20.5709C18.1656 20.1576 18.3576 19.6699 18.7076 19.269L18.7033 19.2648ZM13.9368 19.9964C13.9368 20.5461 13.4717 20.9967 12.9041 20.9967C12.3366 20.9967 11.8714 20.5461 11.8714 19.9964C11.8714 19.4467 12.3323 18.9962 12.9041 18.9962C13.4759 18.9962 13.9368 19.4467 13.9368 19.9964ZM11.3551 21.4968C11.3551 22.0465 10.89 22.497 10.3224 22.497C10.0536 22.497 9.79757 22.3978 9.59701 22.2077C9.40072 22.0176 9.28977 21.7654 9.28977 21.4926C9.28977 20.9429 9.7549 20.4924 10.3224 20.4924C10.5657 20.4924 10.7961 20.5751 10.9796 20.7197C11.0649 20.9264 11.1844 21.1206 11.3295 21.286C11.3466 21.3562 11.3508 21.4224 11.3508 21.4926L11.3551 21.4968ZM10.6382 16.3592C10.9284 16.7312 11.2698 17.2891 11.3423 17.9257C11.3722 18.1819 11.3594 18.4547 11.3082 18.7358C11.1716 18.897 11.0607 19.0788 10.9839 19.2772C10.8857 19.2111 10.7833 19.1408 10.6681 19.0747C10.4761 18.7275 10.3566 18.3803 10.3182 18.0414C10.2414 17.4007 10.4419 16.7849 10.6382 16.3592ZM7.10921 19.7773C7.54874 19.5872 8.18456 19.393 8.84171 19.4674C9.07641 19.4922 9.31111 19.55 9.55007 19.6451C9.14468 19.8063 8.80331 20.0832 8.57288 20.4387C7.97546 20.3353 7.45913 20.0377 7.10495 19.7773H7.10921ZM9.38365 23.2782C9.67382 23.4229 9.99387 23.4973 10.3267 23.4973C11.3124 23.4973 12.1446 22.8194 12.3451 21.9225C12.5243 21.9721 12.7121 21.9969 12.9084 21.9969C13.6722 21.9969 14.3379 21.5918 14.6964 20.9967H16.9495C16.9153 21.2901 16.9196 21.4885 16.9239 21.5092C16.9239 21.6538 16.9921 21.7861 17.1073 21.877C17.2012 21.9556 17.3207 21.9969 17.4402 21.9969C17.4615 21.9969 17.4871 21.9969 17.5085 21.9969C17.5682 21.9886 18.6905 21.8274 19.6634 21.1248C19.992 21.1992 20.3078 21.3108 20.6107 21.4513C20.056 21.9018 19.736 22.3441 19.7104 22.3772C19.625 22.4929 19.5994 22.6417 19.6335 22.7781C19.6677 22.9145 19.7616 23.0343 19.8939 23.1005C19.9451 23.1253 20.9223 23.6171 22.1128 23.6171C22.3304 23.6171 22.5566 23.6006 22.7828 23.5634C23.0047 24.0139 23.1498 24.5016 23.2052 25.0018H12.6438H8.81184C8.88012 24.3942 9.07641 23.8114 9.39219 23.2823L9.38365 23.2782ZM7.22443 25.9979H9.17456L9.57141 27.1552C9.64395 27.366 9.84451 27.4941 10.0621 27.4941C10.1133 27.4941 10.1688 27.4858 10.2243 27.4693C10.4931 27.3825 10.6425 27.0973 10.5529 26.8369L10.2627 25.9937H12.2726L12.6694 27.151C12.742 27.3618 12.9425 27.49 13.1602 27.49C13.2114 27.49 13.2668 27.4817 13.3223 27.4652C13.5911 27.3784 13.7405 27.0932 13.6509 26.8328L13.3607 25.9896H15.3706L15.7674 27.1469C15.84 27.3577 16.0405 27.4858 16.2582 27.4858C16.3094 27.4858 16.3648 27.4776 16.4203 27.461C16.6892 27.3742 16.8385 27.089 16.7489 26.8286L16.4587 25.9855H18.4686L18.8654 27.1428C18.938 27.3536 19.1386 27.4817 19.3562 27.4817C19.4074 27.4817 19.4629 27.4734 19.5183 27.4569C19.7872 27.3701 19.9365 27.0849 19.8469 26.8245L19.5567 25.9813H21.5666L21.9635 27.1386C22.036 27.3494 22.2366 27.4776 22.4542 27.4776C22.5054 27.4776 22.5609 27.4693 22.6163 27.4528C22.8852 27.366 23.0345 27.0808 22.9449 26.8204L22.6548 25.9772H24.7756V27.9777L7.2287 27.9694V25.9689L7.22443 25.9979ZM27.0841 30.9991H4.92012L3.54181 28.9986H28.4539L27.0799 30.9991H27.0841Z" fill="#878787"/>
</svg>
